<svg width="238" height="284" viewBox="0 0 238 284" fill="none" xmlns="http://www.w3.org/2000/svg">
<path opacity="0.02" d="M102.253 8.79999C92.6531 9.33332 85.5865 10.4 81.0531 12C76.7865 13.6 73.8531 16.6667 72.2531 21.2C70.6531 25.7333 69.8531 33.0666 69.8531 43.2V241.6C69.8531 251.733 70.6531 259.067 72.2531 263.6C73.8531 268.133 76.7865 271.2 81.0531 272.8C85.5865 274.4 92.6531 275.467 102.253 276V284C89.9865 283.2 73.0531 282.8 51.4531 282.8C28.5198 282.8 11.4531 283.2 0.253126 284V276C9.85313 275.467 16.7865 274.4 21.0531 272.8C25.5865 271.2 28.6531 268.133 30.2531 263.6C31.8531 259.067 32.6531 251.733 32.6531 241.6V43.2C32.6531 33.0666 31.8531 25.7333 30.2531 21.2C28.6531 16.6667 25.5865 13.6 21.0531 12C16.7865 10.4 9.85313 9.33332 0.253126 8.79999V0.799998C11.4531 1.59999 28.5198 1.99998 51.4531 1.99998C72.7865 1.99998 89.7198 1.59999 102.253 0.799998V8.79999ZM237.8 8.79999C228.2 9.33332 221.133 10.4 216.6 12C212.333 13.6 209.4 16.6667 207.8 21.2C206.2 25.7333 205.4 33.0666 205.4 43.2V241.6C205.4 251.733 206.2 259.067 207.8 263.6C209.4 268.133 212.333 271.2 216.6 272.8C221.133 274.4 228.2 275.467 237.8 276V284C225.533 283.2 208.6 282.8 187 282.8C164.067 282.8 147 283.2 135.8 284V276C145.4 275.467 152.333 274.4 156.6 272.8C161.133 271.2 164.2 268.133 165.8 263.6C167.4 259.067 168.2 251.733 168.2 241.6V43.2C168.2 33.0666 167.4 25.7333 165.8 21.2C164.2 16.6667 161.133 13.6 156.6 12C152.333 10.4 145.4 9.33332 135.8 8.79999V0.799998C147 1.59999 164.067 1.99998 187 1.99998C208.333 1.99998 225.267 1.59999 237.8 0.799998V8.79999Z" fill="white"/>
</svg>
